<svg version="1.1" width="121" height="50" viewBox="-1 0 121 50" xmlns="http://www.w3.org/2000/svg" xmlns:xlink="http://www.w3.org/1999/xlink">
  <defs>
    <linearGradient id="grad_1" x1="240.00001" y1="288.42736" x2="240.00001" y2="337.49744" gradientUnits="userSpaceOnUse">
      <stop offset="0" stop-color="#1a1a1a" stop-opacity="0"/>
      <stop offset="1" stop-color="#1a1a1a"/>
    </linearGradient>
  </defs>
  <!-- Exported by Scratch - http://scratch.mit.edu/ -->
  <path id="ID0.30220894422382116" fill="url(#grad_1)" stroke="none" stroke-width="0" d="M 180.224 328.926 C 180.224 322.848 180.224 304.772 180.224 295.064 C 180.224 291.252 183.311 288.427 186.650 288.427 C 198.649 288.427 270.138 288.640 292.852 288.709 C 297.213 288.722 299.776 292.352 299.776 297.482 C 299.776 307.622 299.776 323.649 299.776 329.229 C 299.776 333.026 296.681 337.497 293.102 337.497 C 280.525 337.497 207.032 337.497 185.903 337.497 C 182.304 337.497 180.224 332.835 180.224 328.926 Z " transform="matrix(1, 0, 0, 1, -180.2, -288.35)"/>
  <text id="ID0.005373664665967226" fill="#A0E23A" x="98.25" y="317" text-anchor="start" font-family="Helvetica" font-size="22" transform="matrix(0.8613518476486206, 0, 0, 0.8613518476486206, 7.65, 13.5)">Play Music</text>
</svg>