<svg version="1.1" width="121" height="50" viewBox="-1 0 121 50" xmlns="http://www.w3.org/2000/svg" xmlns:xlink="http://www.w3.org/1999/xlink">
  <defs>
    <linearGradient id="grad_1" x1="149.68905" y1="287.1418" x2="149.68905" y2="336.21189" gradientUnits="userSpaceOnUse">
      <stop offset="0" stop-color="#1a1a1a" stop-opacity="0"/>
      <stop offset="1" stop-color="#1a1a1a"/>
    </linearGradient>
  </defs>
  <!-- Exported by Scratch - http://scratch.mit.edu/ -->
  <g id="ID0.7269259192980826">
    <g id="ID0.059190673753619194">
      <path id="ID0.6279610609635711" fill="url(#grad_1)" stroke="none" stroke-width="0" d="M 89.913 327.641 C 89.913 321.562 89.913 303.487 89.913 293.778 C 89.913 289.966 93.000 287.142 96.339 287.142 C 108.338 287.142 179.827 287.355 202.541 287.423 C 206.902 287.436 209.465 291.067 209.465 296.197 C 209.465 306.336 209.465 322.363 209.465 327.943 C 209.465 331.740 206.370 336.212 202.791 336.212 C 190.214 336.212 116.721 336.212 95.593 336.212 C 91.993 336.212 89.913 331.550 89.913 327.641 Z " transform="matrix(1, 0, 0, 1, -89.9, -287.1)"/>
    </g>
  </g>
  <text id="ID0.005373664665967226" fill="#A0E23A" x="98.25" y="317" text-anchor="start" font-family="Helvetica" font-size="22" transform="matrix(0.8613518476486206, 0, 0, 0.8613518476486206, 7.4, 12.3)">Stop Music</text>
</svg>