<svg version="1.1" width="71" height="70" viewBox="-1 -1 71 70" xmlns="http://www.w3.org/2000/svg" xmlns:xlink="http://www.w3.org/1999/xlink">
  <!-- Exported by Scratch - http://scratch.mit.edu/ -->
  <path id="ID0.32655118498951197" fill="#efefef" stroke="none" stroke-width="0" d="M 274.594 180 C 274.594 198.918 259.106 214.255 240.000 214.255 C 220.894 214.255 205.406 198.918 205.406 180 C 205.406 161.082 220.894 145.745 240.000 145.745 C 259.106 145.745 274.594 161.082 274.594 180 Z " transform="matrix(1, 0, 0, 1, -204.45, -145.7)"/>
  <path id="ID0.3894143127836287" fill="#a3e339" stroke="none" stroke-width="0" d="M 215.105 180 C 215.105 166.303 226.251 155.200 240 155.200 C 253.749 155.200 264.895 166.303 264.895 180 C 264.895 193.697 253.749 204.800 240 204.800 C 226.251 204.800 215.105 193.697 215.105 180 Z " transform="matrix(1, 0, 0, 1, -204.45, -145.7)"/>
  <path id="ID0.8037235620431602" fill="#000000" stroke="#a3e339" stroke-width="2.5" d="M 255.740 180 C 255.740 188.188 248.693 194.825 240 194.825 C 231.307 194.825 224.260 188.188 224.260 180 C 224.260 171.812 231.307 165.175 240 165.175 C 248.693 165.175 255.740 171.812 255.740 180 Z " transform="matrix(1, 0, 0, 1, -204.45, -145.7)"/>
  <path id="ID0.4279981846921146" fill="#ffffff" stroke="none" stroke-width="0" d="M 231.500 173.100 C 231.500 171.775 232.575 170.700 233.900 170.700 C 235.225 170.700 236.300 171.775 236.300 173.100 C 236.300 174.425 235.225 175.500 233.900 175.500 C 232.575 175.500 231.500 174.425 231.500 173.100 Z " transform="matrix(1, 0, 0, 1, -204.45, -145.7)"/>
</svg>