<svg version="1.1" width="256" height="204" viewBox="-1 -1 256 204" xmlns="http://www.w3.org/2000/svg" xmlns:xlink="http://www.w3.org/1999/xlink">
  <!-- Exported by Scratch - http://scratch.mit.edu/ -->
  <path id="ID0.8465805943123996" fill="#efefef" stroke="none" stroke-width="0" stroke-linecap="butt" d="M 274.594 180 C 274.594 198.918 259.106 214.255 240 214.255 C 220.894 214.255 205.406 198.918 205.406 180 C 205.406 161.082 220.894 145.745 240 145.745 C 259.106 145.745 274.594 161.082 274.594 180 Z " transform="matrix(1, 0, 0, 1, -204.45, -145.7)"/>
  <g id="ID0.11000153189525008" transform="matrix(1, 0, 0, 1, -205, -146)">
    <path id="ID0.6550613311119378" fill="#a3e339" stroke="#a3e339" stroke-width="2.5" stroke-linecap="butt" d="M 231.166 193.948 C 231.166 196.965 228.720 199.411 225.703 199.411 C 222.686 199.411 220.240 196.965 220.240 193.948 C 220.240 190.931 222.686 188.485 225.703 188.485 C 228.720 188.485 231.166 190.931 231.166 193.948 Z " transform="matrix(1.3573296070098877, 0, 0, 1.3573296070098877, -71.35, -69)"/>
    <path id="ID0.5021364870481193" fill="none" stroke="#A3E339" stroke-width="2" stroke-linecap="round" d="M 238.250 203.300 L 238.250 169.500 C 238.500 169.500 237.050 170.200 236.500 170.800 C 236 171.200 235.364 172.631 235.500 172.500 C 235.636 172.369 236.578 170.776 237.250 170.050 C 237.646 169.657 238.006 169.131 238.650 169.200 C 241.225 169.478 243.666 170.190 246.050 171 C 246.687 171.189 245.289 171.133 245 171.300 C 244.923 171.348 244.849 171.214 245.050 171.500 C 246.042 172.646 247.939 174.772 248 174.900 C 248.061 175.028 245.786 172.575 245.750 172.550 C 245.786 172.519 247.232 173.919 248 174.450 C 248.204 174.593 249.172 174.735 248.750 174.450 C 248.683 173.879 246.944 172.014 247 172.700 C 247.174 174.840 248.861 179.802 249.200 180 C 249.539 180.254 249.214 174.406 249.250 174.200 C 249.286 173.994 249.612 177.144 249.500 178.450 C 249.468 178.808 248.822 177.845 248.800 177.400 C 248.822 176.997 250.101 176.812 249.500 176.300 C 247.095 174.252 241.979 171.799 241.500 171.200 C 241.044 170.627 246.034 172.993 246.800 173.200 C 247.341 173.319 245.415 172.189 244.500 171.950 C 243.775 171.760 242.983 172.188 242.250 171.950 C 240.863 171.696 237.542 170.382 238.250 170.500 C 239.351 170.683 244.798 170.530 246.750 172.700 C 249.128 175.419 249.298 183.169 249.500 183.200 C 249.702 183.231 250.562 176.155 249.150 173.100 C 248.263 171.181 245.490 170.926 243.500 170.250 C 242.999 170.055 243.521 170.890 243 170.950 C 240.916 171.191 238.531 170.714 236.700 171 C 236.156 171.114 238.250 171.750 238.250 171.750 " transform="matrix(1.0244648456573486, 0, 0, 1.0244648456573486, -1.65, -13.05)"/>
  </g>
</svg>