<svg version="1.1" width="536" height="403" viewBox="-1 -1 536 403" xmlns="http://www.w3.org/2000/svg" xmlns:xlink="http://www.w3.org/1999/xlink">
  <!-- Exported by Scratch - http://scratch.mit.edu/ -->
  <path id="ID0.12982926797121763" fill="#ffffff" stroke="none" stroke-width="0" d="M -27.374 380.805 L -27.374 -20.805 L 507.374 -20.805 L 507.374 380.805 Z " transform="matrix(1, 0, 0, 1, 27.35, 20.8)"/>
  <text id="ID0.724279219750315" fill="#A0E23A" x="206" y="211.25" text-anchor="start" font-family="Helvetica" font-size="22" transform="matrix(1, 0, 0, 1, 225, 221.15)">Camera</text>
  <path id="ID0.3894143127836287" fill="#a3e339" stroke="none" stroke-width="0" d="M 215.105 180 C 215.105 166.303 226.251 155.200 240 155.200 C 253.749 155.200 264.895 166.303 264.895 180 C 264.895 193.697 253.749 204.800 240 204.800 C 226.251 204.800 215.105 193.697 215.105 180 Z " transform="matrix(1, 0, 0, 1, 27.5, 20.75)"/>
  <path id="ID0.8037235620431602" fill="#000000" stroke="#a3e339" stroke-width="2.5" d="M 255.740 180 C 255.740 188.188 248.693 194.825 240 194.825 C 231.307 194.825 224.260 188.188 224.260 180 C 224.260 171.812 231.307 165.175 240 165.175 C 248.693 165.175 255.740 171.812 255.740 180 Z " transform="matrix(1, 0, 0, 1, 27.5, 20.75)"/>
  <path id="ID0.4279981846921146" fill="#ffffff" stroke="none" stroke-width="0" d="M 231.500 173.100 C 231.500 171.775 232.575 170.700 233.900 170.700 C 235.225 170.700 236.300 171.775 236.300 173.100 C 236.300 174.425 235.225 175.500 233.900 175.500 C 232.575 175.500 231.500 174.425 231.500 173.100 Z " transform="matrix(1, 0, 0, 1, 27.5, 20.75)"/>
</svg>