<svg version="1.1" width="167" height="60" viewBox="-1 0 167 60" xmlns="http://www.w3.org/2000/svg" xmlns:xlink="http://www.w3.org/1999/xlink">
  <defs>
    <linearGradient id="grad_1" x1="240" y1="150.5" x2="240" y2="209.5" gradientUnits="userSpaceOnUse">
      <stop offset="0" stop-color="#1a1a1a" stop-opacity="0"/>
      <stop offset="1" stop-color="#1a1a1a"/>
    </linearGradient>
  </defs>
  <!-- Exported by Scratch - http://scratch.mit.edu/ -->
  <g id="ID0.33226983109489083">
    <g id="ID0.03033600701019168">
      <path id="ID0.054493662901222706" fill="url(#grad_1)" stroke="none" stroke-width="0" d="M 157.250 203.083 C 157.250 190.682 157.250 164.031 157.250 157.083 C 157.250 153.843 160.648 150.500 165 150.500 C 181.643 150.500 286.767 150.500 315.500 150.500 C 320.107 150.500 322.750 154.278 322.750 159.833 C 322.750 172.976 322.750 196.065 322.750 202.583 C 322.750 205.963 319.916 209.500 315 209.500 C 285.284 209.500 179.495 209.500 163.750 209.500 C 159.894 209.500 157.250 207.004 157.250 203.083 Z " transform="matrix(1, 0, 0, 1, -157.25, -150.5)"/>
      <path id="ID0.45957266306504607" fill="#00edff" stroke="none" stroke-width="0" d="M 254.120 196.083 L 254.120 183.583 L 268.370 183.583 L 268.370 196.083 Z " transform="matrix(1, 0, 0, 1, -157.25, -150.5)"/>
      <path id="ID0.19012382347136736" fill="none" stroke="#a0e23a" stroke-width="2.5" d="M 204.250 197.626 C 204.250 192.888 204.250 184.980 204.250 182.319 C 204.250 180.594 205.420 178.583 206.881 178.583 C 213.022 178.583 255.287 178.583 268.387 178.583 C 270.823 178.583 272.250 180.085 272.250 181.484 C 272.250 184.075 272.250 192.944 272.250 197.904 C 272.250 199.952 270.742 201.333 268.944 201.333 C 262.023 201.333 218.143 201.333 206.881 201.333 C 205.204 201.333 204.250 199.819 204.250 197.626 Z " transform="matrix(1, 0, 0, 1, -157.25, -150.5)"/>
    </g>
  </g>
  <text id="ID0.3615218144841492" fill="#A0E23A" x="188" y="161.25" text-anchor="start" font-family="Helvetica" font-size="22" transform="matrix(0.7227036356925964, 0, 0, 0.7227036356925964, 5, 5.15)">Moving Background</text>
</svg>