<svg version="1.1" width="745" height="677" viewBox="-1 -1 745 677" xmlns="http://www.w3.org/2000/svg" xmlns:xlink="http://www.w3.org/1999/xlink">
  <!-- Exported by Scratch - http://scratch.mit.edu/ -->
  <g id="ID0.7656013513915241">
    <g id="ID0.2639466319233179">
      <path id="ID0.2454084693454206" fill="#000000" stroke="#1a1a1a" stroke-width="4" stroke-linecap="butt" d="M -4.991 368.867 L -4.991 322.829 L 485.991 322.829 L 485.991 368.867 Z " transform="matrix(1, 0, 0, 1, 132.35, 98.75)"/>
      <path id="ID0.2754939226433635" fill="none" stroke="#1a1a1a" stroke-width="4" stroke-linecap="round" d="M -130.371 431.424 L -98.839 461.454 " transform="matrix(1, 0, 0, 1, 132.35, 98.75)"/>
      <path id="ID0.22250564582645893" fill="none" stroke="#1a1a1a" stroke-width="4" stroke-linecap="round" d="M 602.362 435.929 L 501.761 509.502 " transform="matrix(1, 0, 0, 1, 132.35, 98.75)"/>
      <path id="ID0.39205282321199775" fill="none" stroke="#1a1a1a" stroke-width="4" stroke-linecap="round" d="M 222.482 575.568 L 225.485 438.932 " transform="matrix(1, 0, 0, 1, 132.35, 98.75)"/>
      <path id="ID0.2637673346325755" fill="none" stroke="#1a1a1a" stroke-width="4" stroke-linecap="round" d="M -106.847 -95.776 L -126.366 -71.752 " transform="matrix(1, 0, 0, 1, 132.35, 98.75)"/>
      <path id="ID0.5546645256690681" fill="none" stroke="#1a1a1a" stroke-width="4" stroke-linecap="round" d="M 586.847 -95.776 L 609.369 -64.244 " transform="matrix(1, 0, 0, 1, 132.35, 98.75)"/>
    </g>
  </g>
  <text id="ID0.2583256708458066" fill="#A0E23A" x="154.5" y="347.25" text-anchor="start" font-family="Donegal" font-size="22" transform="matrix(-0.9999845027923584, -0.005567577201873064, 0.005567577201873064, -0.9999845027923584, 267.65, 455.35)">Ω</text>
</svg>